<svg width="42" height="42" viewBox="0 0 42 42" fill="none" xmlns="http://www.w3.org/2000/svg">
<path d="M21 14.2308C17.2727 14.2308 14.2309 17.2726 14.2309 20.9999C14.2309 24.7273 17.2727 27.7691 21 27.7691C24.7273 27.7691 27.7691 24.7273 27.7691 20.9999C27.7691 17.2726 24.7273 14.2308 21 14.2308ZM41.3023 20.9999C41.3023 18.1968 41.3277 15.4191 41.1703 12.621C41.0129 9.37104 40.2715 6.48667 37.8949 4.1101C35.5133 1.72846 32.634 0.992135 29.384 0.834713C26.5809 0.677292 23.8031 0.702682 21.0051 0.702682C18.202 0.702682 15.4242 0.677292 12.6262 0.834713C9.37617 0.992135 6.4918 1.73354 4.11523 4.1101C1.73359 6.49174 0.997262 9.37104 0.83984 12.621C0.682419 15.4242 0.707809 18.2019 0.707809 20.9999C0.707809 23.798 0.682419 26.5808 0.83984 29.3789C0.997262 32.6289 1.73867 35.5132 4.11523 37.8898C6.49687 40.2714 9.37617 41.0078 12.6262 41.1652C15.4293 41.3226 18.207 41.2972 21.0051 41.2972C23.8082 41.2972 26.5859 41.3226 29.384 41.1652C32.634 41.0078 35.5184 40.2663 37.8949 37.8898C40.2766 35.5081 41.0129 32.6289 41.1703 29.3789C41.3328 26.5808 41.3023 23.8031 41.3023 20.9999ZM21 31.4152C15.2363 31.4152 10.5848 26.7636 10.5848 20.9999C10.5848 15.2363 15.2363 10.5847 21 10.5847C26.7637 10.5847 31.4152 15.2363 31.4152 20.9999C31.4152 26.7636 26.7637 31.4152 21 31.4152ZM31.8418 12.5906C30.4961 12.5906 29.4094 11.5039 29.4094 10.1581C29.4094 8.81245 30.4961 7.72573 31.8418 7.72573C33.1875 7.72573 34.2742 8.81245 34.2742 10.1581C34.2746 10.4777 34.212 10.7942 34.0899 11.0895C33.9678 11.3848 33.7886 11.6531 33.5627 11.879C33.3367 12.105 33.0684 12.2841 32.7731 12.4062C32.4778 12.5283 32.1613 12.591 31.8418 12.5906Z" fill="#999999"/>
</svg>
