<svg width="54" height="32" viewBox="0 0 54 32" fill="none" xmlns="http://www.w3.org/2000/svg">
<path fill-rule="evenodd" clip-rule="evenodd" d="M52.7625 2.383C53.136 1.1545 52.7625 0.25 50.9738 0.25H45.0675C43.5645 0.25 42.8715 1.03075 42.4957 1.8925C42.4957 1.8925 39.492 9.0835 35.2373 13.7545C33.8603 15.109 33.2347 15.5388 32.4832 15.5388C32.1075 15.5388 31.5427 15.109 31.5427 13.8783V2.383C31.5427 0.907 31.1287 0.25 29.8778 0.25H20.5898C19.6515 0.25 19.0868 0.934 19.0868 1.58425C19.0868 2.9815 21.2153 3.3055 21.4335 7.2385V15.784C21.4335 17.6583 21.0892 17.998 20.3377 17.998C18.3352 17.998 13.464 10.7733 10.5728 2.50675C10.0125 0.898 9.4455 0.25 7.93575 0.25H2.025C0.3375 0.25 0 1.03075 0 1.8925C0 3.427 2.0025 11.05 9.32625 21.1323C14.2087 28.0173 21.0825 31.75 27.3442 31.75C31.0995 31.75 31.563 30.922 31.563 29.4933V24.289C31.563 22.6308 31.9185 22.3 33.1087 22.3C33.9863 22.3 35.487 22.732 38.9925 26.0508C42.9975 29.986 43.6567 31.75 45.9113 31.75H51.8175C53.505 31.75 54.351 30.922 53.865 29.284C53.3295 27.655 51.417 25.2903 48.8813 22.4845C47.5042 20.887 45.4388 19.1658 44.811 18.304C43.9357 17.1993 44.1855 16.7065 44.811 15.7233C44.811 15.7233 52.011 5.76475 52.7603 2.383H52.7625Z" fill="#999999"/>
</svg>
