<svg width="54" height="38" viewBox="0 0 54 38" fill="none" xmlns="http://www.w3.org/2000/svg">
<path d="M52.875 6.64068C52.5692 5.54995 51.9736 4.56245 51.1515 3.78318C50.3061 2.97993 49.27 2.40536 48.141 2.11368C43.9155 0.999927 26.9865 0.999927 26.9865 0.999927C19.929 0.91963 12.8732 1.27279 5.85899 2.05743C4.72991 2.37066 3.69575 2.95807 2.84848 3.76743C2.01598 4.56843 1.41298 5.55618 1.09798 6.63843C0.341294 10.7148 -0.0263581 14.8539 -1.51463e-05 18.9999C-0.0270151 23.1422 0.339735 27.2799 1.09798 31.3614C1.40623 32.4392 2.00698 33.4224 2.84173 34.2167C3.67648 35.0109 4.71599 35.5847 5.85899 35.8884C10.1407 36.9999 26.9865 36.9999 26.9865 36.9999C34.053 37.0803 41.1177 36.7272 48.141 35.9424C49.27 35.6507 50.3061 35.0762 51.1515 34.2729C51.984 33.4787 52.5757 32.4909 52.8727 31.4154C53.6492 27.3406 54.0267 23.1998 54 19.0517C54.0584 14.886 53.6813 10.7257 52.875 6.63843V6.64068ZM21.6045 26.7039V11.2982L35.6895 19.0022L21.6045 26.7039Z" fill="#999999"/>
</svg>
